#!OML:ASF H:\Terrain\Patient Classification 1\Walking\liu\liu.ASF
:FULLY-SPECIFIED
:DEGREES
165
root 8.21964 16.6696 -13.7752 7.57564 9.27781 -1.09318
lowerback -4.58039 -1.61222 -0.201933
upperback -1.64723 -2.17981 3.48779
thorax 1.0172 -1.08396 3.58479
lowerneck -18.6444 -7.21073 -14.5694
upperneck 14.5916 -8.79172 14.6921
head 8.98202 -3.56274 6.26355
rclavicle -2.54444e-014 2.3059e-014
rhumerus -45.1634 9.62268 -81.6378
rradius 34.923
rwrist -19.0166
rhand -28.3185 -26.6449
rfingers 7.12502
rthumb -1.69352 -56.6179
lclavicle -2.54444e-014 2.3059e-014
lhumerus -45.4629 -12.722 97.1754
lradius 26.6379
lwrist 4.35162
lhand -0.828752 -18.6386
lfingers 7.12502
lthumb 24.7963 9.77387
rfemur -27.1207 1.28124 24.1873
rtibia 29.659
rfoot -13.1264 0.848233
rtoes -14.7226
lfemur -8.02459 8.17899 -14.3492
ltibia 56.6923
lfoot 1.73682 13.1541
ltoes -13.4446
166
root 8.20651 16.6946 -13.6532 7.56201 9.02781 -0.992849
lowerback -4.38681 -1.42224 -0.403468
upperback -1.68148 -1.91425 3.524
thorax 0.864417 -0.949105 3.75663
lowerneck -18.5768 -7.26848 -14.891
upperneck 14.7186 -8.82828 14.7969
head 9.04004 -3.59068 6.35471
rclavicle -3.47873e-014 -2.3059e-014
rhumerus -45.244 10.2731 -81.5389
rradius 35.8684
rwrist -19.3262
rhand -28.6394 -25.2255
rfingers 7.12502
rthumb -2.00348 -55.1958
lclavicle -3.47873e-014 -2.3059e-014
lhumerus -45.8935 -13.1598 97.6515
lradius 27.2524
lwrist 5.28085
lhand -0.92864 -18.9439
lfingers 7.12502
lthumb 24.7006 9.48164
rfemur -26.3037 1.39662 24.2058
rtibia 29.0553
rfoot -13.3502 0.992172
rtoes -15.3779
lfemur -9.42202 8.19756 -14.8077
ltibia 57.7151
lfoot 0.0850987 12.7036
ltoes -16.2202
167
root 8.19603 16.7151 -13.5336 7.71125 8.78723 -1.03217
lowerback -4.51212 -1.27252 -0.372481
upperback -1.64747 -1.71861 3.52727
thorax 0.955086 -0.852272 3.75005
lowerneck -18.6787 -7.27738 -15.0469
upperneck 14.6684 -8.81446 14.975
head 9.05673 -3.57256 6.44648
rclavicle -3.47376e-014 1.59028e-015
rhumerus -44.8276 10.9159 -81.6254
rradius 36.3026
rwrist -19.581
rhand -29.307 -24.2517
rfingers 7.12502
rthumb -2.64823 -54.215
lclavicle -3.47376e-014 1.59028e-015
lhumerus -46.1333 -13.2368 97.725
lradius 27.869
lwrist 5.96956
lhand -0.867805 -19.1379
lfingers 7.12502
lthumb 24.7589 9.27968
rfemur -25.6969 1.51796 24.3667
rtibia 28.5281
rfoot -13.5621 1.18448
rtoes -15.5218
lfemur -10.9848 8.34186 -15.1298
ltibia 58.7108
lfoot -0.926786 12.2798
ltoes -12.8831
168
root 8.18557 16.733 -13.4155 7.84447 8.6578 -1.41526
lowerback -4.66429 -1.1182 -0.000775438
upperback -1.6096 -1.53314 3.58369
thorax 1.05824 -0.76063 3.60566
lowerneck -18.6369 -7.29682 -14.9314
upperneck 14.4099 -8.87185 15.075
head 8.97195 -3.58619 6.44785
rclavicle -1.77912e-014 -8.74653e-015
rhumerus -44.1733 11.2726 -81.6334
rradius 36.4952
rwrist -19.7755
rhand -29.6493 -24.5248
rfingers 7.12502
rthumb -2.97877 -54.4837
lclavicle -1.77912e-014 -8.74653e-015
lhumerus -46.3926 -13.7075 97.8693
lradius 28.5854
lwrist 6.98846
lhand -0.821495 -19.0173
lfingers 7.12502
lthumb 24.8033 9.39418
rfemur -25.1658 1.70007 24.891
rtibia 28.0921
rfoot -13.7708 1.23202
rtoes -14.9413
lfemur -12.6227 8.49591 -15.0409
ltibia 59.6602
lfoot -1.85839 11.652
ltoes -11.4899
169
root 8.17304 16.7455 -13.3023 7.92123 8.5198 -1.65322
lowerback -4.70319 -0.94264 0.23203
upperback -1.53251 -1.31208 3.54566
thorax 1.13923 -0.651119 3.44605
lowerneck -18.4467 -7.32801 -14.7963
upperneck 14.1464 -8.98234 15.2317
head 8.87075 -3.62506 6.45986
rclavicle 4.62174e-015 -2.54444e-014
rhumerus -43.5721 11.3007 -81.5535
rradius 36.8811
rwrist -19.9247
rhand -29.6982 -25.0877
rfingers 7.12502
rthumb -3.02596 -55.0459
lclavicle 4.62174e-015 -2.54444e-014
lhumerus -46.5669 -14.2452 97.9211
lradius 29.3099
lwrist 8.25207
lhand -3.54876 -20.568
lfingers 7.12502
lthumb 22.1872 8.17868
rfemur -24.6088 1.98164 25.2202
rtibia 27.6945
rfoot -13.9823 1.19737
rtoes -13.9971
lfemur -14.2208 8.51612 -15.1348
ltibia 60.4663
lfoot -2.66703 10.9223
ltoes -13.5649
170
root 8.16607 16.7517 -13.1863 7.89934 8.24324 -1.69623
lowerback -5.02084 -0.568659 0.317954
upperback -0.356123 -0.864289 3.54046
thorax 2.50037 -0.44446 3.41301
lowerneck -21.5469 -8.13752 -15.0989
upperneck 14.3839 -9.69032 15.5919
head 9.66107 -3.80209 6.49904
rclavicle -1.98785e-016 -5.56597e-015
rhumerus -40.8578 10.9294 -80.7567
rradius 37.1502
rwrist -20.1642
rhand -30.0563 -25.0257
rfingers 7.12502
rthumb -3.37187 -54.9788
lclavicle -1.98785e-016 -5.56597e-015
lhumerus -44.2825 -15.1184 97.7235
lradius 29.5907
lwrist 9.91486
lhand -11.4772 -26.0229
lfingers 7.12502
lthumb 14.5607 3.44606
rfemur -23.9691 2.03855 25.3566
rtibia 27.3907
rfoot -14.1695 1.49939
rtoes -13.7592
lfemur -15.568 8.56326 -15.4896
ltibia 61.0988
lfoot -3.80625 10.5146
ltoes -13.4995
171
root 8.16019 16.7572 -13.0651 7.93958 7.97293 -1.76862
lowerback -4.57064 -0.417674 0.431171
upperback -1.57651 -0.615856 3.57263
thorax 0.977097 -0.30104 3.40221
lowerneck -17.6243 -7.61733 -15.8204
upperneck 13.712 -9.32424 15.9364
head 8.72957 -3.81621 6.83629
rclavicle 2.72832e-014 -3.89618e-014
rhumerus -43.0913 11.5135 -80.9591
rradius 37.8863
rwrist -20.0485
rhand -29.7307 -24.296
rfingers 7.12502
rthumb -3.05735 -54.2538
lclavicle 2.72832e-014 -3.89618e-014
lhumerus -47.1849 -14.6597 98.4275
lradius 30.4515
lwrist 11.1376
lhand -11.0897 -25.7732
lfingers 7.12502
lthumb 14.9341 3.66839
rfemur -23.5033 1.97144 25.5667
rtibia 27.2702
rfoot -14.2718 1.85784
rtoes -14.9789
lfemur -16.9062 8.60461 -15.8127
ltibia 61.5813
lfoot -4.8299 10.1833
ltoes -11.3555
172
root 8.15415 16.7641 -12.9479 8.00287 7.75031 -1.65248
lowerback -4.26238 -0.229482 0.337991
upperback -2.40559 -0.324402 3.56131
thorax -0.0634009 -0.141517 3.46072
lowerneck -14.9842 -7.30129 -16.3016
upperneck 13.398 -9.14035 16.0118
head 8.14797 -3.86647 7.0023
rclavicle 2.36057e-014 -1.59028e-015
rhumerus -44.4271 11.7859 -80.8617
rradius 38.4725
rwrist -19.8733
rhand -29.2289 -24.0708
rfingers 7.12502
rthumb -2.57276 -54.035
lclavicle 2.36057e-014 -1.59028e-015
lhumerus -49.2577 -14.3086 98.9221
lradius 31.35
lwrist 12.0233
lhand -11.4224 -25.6563
lfingers 7.12502
lthumb 14.6136 3.80882
rfemur -23.0875 2.1374 25.5306
rtibia 27.242
rfoot -14.5466 1.9107
rtoes -15.5314
lfemur -18.286 8.59298 -16.3384
ltibia 61.9578
lfoot -5.24633 9.75124
ltoes -8.88369
173
root 8.14617 16.7641 -12.8371 7.99578 7.6226 -1.47591
lowerback -4.07672 -0.0960099 0.153551
upperback -2.57747 -0.129895 3.45881
thorax -0.354842 -0.0393873 3.46705
lowerneck -14.2572 -7.19565 -16.4013
upperneck 13.2901 -9.10445 16.2017
head 7.99147 -3.8718 7.10197
rclavicle -6.70898e-016 -1.98785e-014
rhumerus -44.5583 11.9485 -80.7898
rradius 39.0034
rwrist -19.9849
rhand -30.1717 -25.0411
rfingers 7.12502
rthumb -3.48329 -54.9924
lclavicle -6.70898e-016 -1.98785e-014
lhumerus -49.7046 -13.9016 98.6058
lradius 31.8905
lwrist 12.7362
lhand -11.5839 -25.8282
lfingers 7.12502
lthumb 14.458 3.64814
rfemur -22.5963 2.31794 25.4395
rtibia 27.2525
rfoot -15.1331 1.81535
rtoes -15.2956
lfemur -19.6668 8.59609 -16.8768
ltibia 62.2724
lfoot -5.417 9.42009
ltoes -6.1874
174
root 8.13552 16.7549 -12.7235 7.99044 7.55513 -1.69118
lowerback -4.06812 -0.014417 0.275115
upperback -2.51818 -0.0266566 3.48905
thorax -0.304815 0.0104469 3.43346
lowerneck -14.1506 -7.15753 -16.2456
upperneck 13.1155 -9.0871 16.2352
head 7.90688 -3.85821 7.08706
rclavicle 1.5207e-014 -1.27222e-014
rhumerus -44.1503 12.1716 -80.7221
rradius 39.4795
rwrist -20.4527
rhand -31.2087 -24.6229
rfingers 7.12502
rthumb -4.48466 -54.5554
lclavicle 1.5207e-014 -1.27222e-014
lhumerus -49.4915 -13.0308 97.8821
lradius 32.073
lwrist 12.9498
lhand -11.8012 -26.2992
lfingers 7.12502
lthumb 14.2486 3.19204
rfemur -22.177 2.50215 25.7941
rtibia 27.3144
rfoot -15.7029 1.74698
rtoes -15.343
lfemur -21.1732 8.5371 -16.9433
ltibia 62.5402
lfoot -6.00562 9.36058
ltoes -2.79197
175
root 8.12706 16.7517 -12.6039 7.96036 7.34556 -1.85194
lowerback -4.14548 0.155172 0.406313
upperback -2.39844 0.189432 3.47971
thorax -0.150483 0.115461 3.35821
lowerneck -14.1696 -7.21306 -16.1529
upperneck 12.9784 -9.16446 16.2267
head 7.8748 -3.8905 7.05321
rclavicle 1.73937e-015 -3.02153e-014
rhumerus -43.494 12.0529 -80.4508
rradius 39.9306
rwrist -20.9041
rhand -30.8619 -23.5376
rfingers 7.12502
rthumb -4.14979 -53.4769
lclavicle 1.73937e-015 -3.02153e-014
lhumerus -49.288 -12.8065 97.6641
lradius 32.1217
lwrist 13.7511
lhand -12.4402 -26.6325
lfingers 7.12502
lthumb 13.6328 2.90103
rfemur -21.7161 2.69222 26.074
rtibia 27.4087
rfoot -16.2964 1.791
rtoes -16.0071
lfemur -22.574 8.41169 -17.0983
ltibia 62.6944
lfoot -6.98138 9.50168
ltoes 0.292265
176
root 8.11777 16.7495 -12.4875 7.96141 7.09961 -1.67105
lowerback -4.16383 0.279159 0.149906
upperback -2.19269 0.35671 3.39253
thorax 0.0609664 0.197868 3.41998
lowerneck -14.8909 -7.35493 -15.9576
upperneck 13.2689 -9.30824 16.0937
head 8.10694 -3.92536 6.94674
rclavicle 8.77137e-015 2.38542e-014
rhumerus -42.94 11.9946 -80.1315
rradius 40.7424
rwrist -21.0451
rhand -30.2139 -24.1293
rfingers 7.12502
rthumb -3.52398 -54.0799
lclavicle 8.77137e-015 2.38542e-014
lhumerus -48.9461 -13.2817 97.7506
lradius 32.3866
lwrist 15.6563
lhand -12.6578 -26.1819
lfingers 7.12502
lthumb 13.423 3.36558
rfemur -21.2869 2.78856 26.007
rtibia 27.4825
rfoot -16.9814 1.77174
rtoes -16.8208
lfemur -23.8726 8.28806 -17.646
ltibia 62.7371
lfoot -7.84919 9.7273
ltoes -1.04435
177
root 8.11295 16.7345 -12.3729 7.94138 6.88822 -1.61785
lowerback -4.15119 0.276291 -0.0535069
upperback -1.83904 0.349192 3.41205
thorax 0.416309 0.189499 3.55615
lowerneck -16.2523 -7.48123 -15.5019
upperneck 13.873 -9.38049 15.6638
head 8.51448 -3.90754 6.69676
rclavicle -7.95139e-016 1.66979e-014
rhumerus -42.0322 12.2171 -79.8763
rradius 41.5215
rwrist -21.1364
rhand -30.2254 -25.2001
rfingers 7.12502
rthumb -3.53513 -55.1505
lclavicle -7.95139e-016 1.66979e-014
lhumerus -48.1859 -13.0398 97.3327
lradius 32.7321
lwrist 17.1973
lhand -12.3463 -25.5787
lfingers 7.12502
lthumb 13.7232 3.9488
rfemur -20.9084 2.81899 26.0903
rtibia 27.5554
rfoot -17.3681 1.7268
rtoes -17.2699
lfemur -25.1005 8.21003 -18.0355
ltibia 62.6922
lfoot -8.78458 10.1015
ltoes -4.46047
178
root 8.11406 16.7212 -12.2541 7.87718 6.63119 -1.80556
lowerback -4.57014 0.461808 0.115797
upperback -0.354064 0.533977 3.46054
thorax 2.1673 0.25489 3.53683
lowerneck -20.7196 -8.22656 -15.0556
upperneck 14.6153 -9.94475 15.4483
head 9.62561 -3.9652 6.40855
rclavicle 2.28602e-015 2.22639e-014
rhumerus -38.1867 11.4917 -78.9812
rradius 41.3605
rwrist -21.1666
rhand -30.3126 -25.4186
rfingers 7.12502
rthumb -3.61938 -55.3676
lclavicle 2.28602e-015 2.22639e-014
lhumerus -45.007 -12.8515 96.4066
lradius 32.6131
lwrist 17.4982
lhand -12.6379 -25.6321
lfingers 7.12502
lthumb 13.4422 3.9142
rfemur -20.4596 2.87036 26.3829
rtibia 27.6484
rfoot -17.4211 1.92051
rtoes -16.9939
lfemur -26.2683 8.19682 -18.1418
ltibia 62.5748
lfoot -9.92391 10.5115
ltoes -7.38875
